<svg width="200" height="170" viewBox="0 0 200 170" fill="none" xmlns="http://www.w3.org/2000/svg">
<g clip-path="url(#clip0_57_252)">
<path d="M350.96 0H0.950001V210H350.96V0Z" fill="#F6FBFF"/>
<path d="M183.861 107.58L153.817 110.844L157.079 140.867L187.122 137.604L183.861 107.58Z" fill="white"/>
<path d="M187.88 137.08L187.93 137.52L171.97 139.25L175.04 135.43L179.28 130.16L187.88 137.08Z" fill="#1E1E1E"/>
<path d="M156.26 140.96L155.93 137.98L164.68 127.1L178.87 138.5L156.26 140.96Z" fill="#1E1E1E"/>
<path d="M175.03 122.49C177.725 122.49 179.91 120.305 179.91 117.61C179.91 114.915 177.725 112.73 175.03 112.73C172.335 112.73 170.15 114.915 170.15 117.61C170.15 120.305 172.335 122.49 175.03 122.49Z" fill="#1E1E1E"/>
<path d="M192.671 120.146L162.452 120.473L162.779 150.672L192.997 150.345L192.671 120.146Z" fill="white"/>
<path d="M193.81 149.89V150.33L177.75 150.51L181.19 147L185.91 142.17L193.81 149.89Z" fill="#5B5B5B"/>
<path d="M161.95 150.68L161.92 147.68L171.68 137.7L184.69 150.43L161.95 150.68Z" fill="#5B5B5B"/>
<path d="M187.563 130.72C188.372 128.149 186.944 125.409 184.373 124.6C181.802 123.791 179.062 125.219 178.253 127.79C177.444 130.361 178.872 133.1 181.443 133.91C184.014 134.719 186.754 133.291 187.563 130.72Z" fill="#5B5B5B"/>
<path d="M178.886 122.818L149.119 128.029L154.327 157.777L184.094 152.566L178.886 122.818Z" fill="white"/>
<path d="M184.83 151.98L184.91 152.41L169.09 155.19L171.91 151.17L175.79 145.64L184.83 151.98Z" fill="#D0D5E4"/>
<path d="M153.53 157.91L153.01 154.96L161.03 143.53L175.93 153.99L153.53 157.91Z" fill="#D0D5E4"/>
<path d="M170.74 138.27C173.435 138.27 175.62 136.085 175.62 133.39C175.62 130.695 173.435 128.51 170.74 128.51C168.045 128.51 165.86 130.695 165.86 133.39C165.86 136.085 168.045 138.27 170.74 138.27Z" fill="#D0D5E4"/>
<path d="M26.0869 11.4036L18.6684 40.6782L47.9625 48.1016L55.381 18.827L26.0869 11.4036Z" fill="white"/>
<g style="mix-blend-mode:screen" opacity="0.75">
<g filter="url(#filter0_d_57_252)">
<path d="M26.0869 11.4036L18.6684 40.6782L47.9625 48.1016L55.381 18.827L26.0869 11.4036Z" fill="white"/>
</g>
</g>
<path d="M48.87 47.8801L48.76 48.3001L33.2 44.3601L37.41 41.8501L43.22 38.3901L48.87 47.8801Z" fill="#1E1E1E"/>
<path d="M17.88 40.4799L18.61 37.5699L30.61 30.4299L39.92 46.0599L17.88 40.4799Z" fill="#1E1E1E"/>
<path d="M43.61 30.03C46.3052 30.03 48.49 27.8452 48.49 25.15C48.49 22.4549 46.3052 20.27 43.61 20.27C40.9149 20.27 38.73 22.4549 38.73 25.15C38.73 27.8452 40.9149 30.03 43.61 30.03Z" fill="#1E1E1E"/>
<path d="M30.8712 23.5229L20.6032 51.9109L49.01 62.1857L59.278 33.7977L30.8712 23.5229Z" fill="white"/>
<path d="M49.95 61.95L49.8 62.36L34.7 56.93L39.13 54.84L45.25 51.96L49.95 61.95Z" fill="#5B5B5B"/>
<path d="M19.82 51.5801L20.84 48.7601L33.47 42.8101L41.22 59.2801L19.82 51.5801Z" fill="#5B5B5B"/>
<path d="M50.7878 41.8104C52.4427 39.6831 52.0597 36.6171 49.9324 34.9622C47.8051 33.3074 44.7391 33.6904 43.0843 35.8177C41.4294 37.9449 41.8124 41.011 43.9397 42.6658C46.067 44.3206 49.133 43.9377 50.7878 41.8104Z" fill="#5B5B5B"/>
<path d="M15.7137 25.8646L10.2206 55.5608L39.9365 61.0576L45.4296 31.3614L15.7137 25.8646Z" fill="white"/>
<path d="M40.81 60.7799L40.73 61.2099L24.95 58.2899L28.99 55.5099L34.55 51.6799L40.81 60.7799Z" fill="#D0D5E4"/>
<path d="M9.4 55.4201L9.95 52.4701L21.45 44.5601L31.77 59.5501L9.4 55.4201Z" fill="#D0D5E4"/>
<path d="M34.09 43.3201C36.7851 43.3201 38.97 41.1352 38.97 38.4401C38.97 35.7449 36.7851 33.5601 34.09 33.5601C31.3949 33.5601 29.21 35.7449 29.21 38.4401C29.21 41.1352 31.3949 43.3201 34.09 43.3201Z" fill="#D0D5E4"/>
<g filter="url(#filter1_d_57_252)">
<path d="M154.65 47.79H32.9V136.58H154.65V47.79Z" fill="white"/>
</g>
<path d="M151.22 50.3H140.19V53.84H151.22V50.3Z" fill="#D0D5E4"/>
<path d="M136.01 50.3H124.98V53.84H136.01V50.3Z" fill="#D0D5E4"/>
<path d="M121.61 50.3H110.58V53.84H121.61V50.3Z" fill="#D0D5E4"/>
<path d="M53.46 50.3H36.32V53.84H53.46V50.3Z" fill="#D0D5E4"/>
<path d="M71.1 57.48H38.32C37.2154 57.48 36.32 58.3754 36.32 59.48V83.76C36.32 84.8646 37.2154 85.76 38.32 85.76H71.1C72.2046 85.76 73.1 84.8646 73.1 83.76V59.48C73.1 58.3754 72.2046 57.48 71.1 57.48Z" fill="#545454"/>
<path d="M111.742 58.0349H79.6576C78.5764 58.0349 77.7 58.915 77.7 60.0006V95.0692C77.7 96.1548 78.5764 97.0349 79.6576 97.0349H111.742C112.824 97.0349 113.7 96.1548 113.7 95.0692V60.0006C113.7 58.915 112.824 58.0349 111.742 58.0349Z" fill="#D0D5E4"/>
<path d="M150.097 89H118.903C117.852 89 117 89.9027 117 91.0161V126.984C117 128.097 117.852 129 118.903 129H150.097C151.148 129 152 128.097 152 126.984V91.0161C152 89.9027 151.148 89 150.097 89Z" fill="#D0D5E4"/>
<path d="M149.151 58H118.849C117.828 58 117 58.8866 117 59.9802V84.0198C117 85.1134 117.828 86 118.849 86H149.151C150.172 86 151 85.1134 151 84.0198V59.9802C151 58.8866 150.172 58 149.151 58Z" fill="#D0D5E4"/>
<path d="M111.742 100.035H79.6576C78.5764 100.035 77.7 100.921 77.7 102.015V126.055C77.7 127.148 78.5764 128.035 79.6576 128.035H111.742C112.824 128.035 113.7 127.148 113.7 126.055V102.015C113.7 100.921 112.824 100.035 111.742 100.035Z" fill="#D0D5E4"/>
<path d="M72.3 88.4199H39.52C38.4154 88.4199 37.52 89.3154 37.52 90.4199V126.46C37.52 127.564 38.4154 128.46 39.52 128.46H72.3C73.4046 128.46 74.3 127.564 74.3 126.46V90.4199C74.3 89.3154 73.4046 88.4199 72.3 88.4199Z" fill="#D0D5E4"/>
</g>
<defs>
<filter id="filter0_d_57_252" x="16.6684" y="9.40356" width="44.7126" height="44.698" filterUnits="userSpaceOnUse" color-interpolation-filters="sRGB">
<feFlood flood-opacity="0" result="BackgroundImageFix"/>
<feColorMatrix in="SourceAlpha" type="matrix" values="0 0 0 0 0 0 0 0 0 0 0 0 0 0 0 0 0 0 127 0" result="hardAlpha"/>
<feOffset dx="2" dy="2"/>
<feGaussianBlur stdDeviation="2"/>
<feComposite in2="hardAlpha" operator="out"/>
<feColorMatrix type="matrix" values="0 0 0 0 0 0 0 0 0 0 0 0 0 0 0 0 0 0 1 0"/>
<feBlend mode="normal" in2="BackgroundImageFix" result="effect1_dropShadow_57_252"/>
<feBlend mode="normal" in="SourceGraphic" in2="effect1_dropShadow_57_252" result="shape"/>
</filter>
<filter id="filter1_d_57_252" x="30.9" y="45.79" width="133.75" height="100.79" filterUnits="userSpaceOnUse" color-interpolation-filters="sRGB">
<feFlood flood-opacity="0" result="BackgroundImageFix"/>
<feColorMatrix in="SourceAlpha" type="matrix" values="0 0 0 0 0 0 0 0 0 0 0 0 0 0 0 0 0 0 127 0" result="hardAlpha"/>
<feOffset dx="4" dy="4"/>
<feGaussianBlur stdDeviation="3"/>
<feComposite in2="hardAlpha" operator="out"/>
<feColorMatrix type="matrix" values="0 0 0 0 0 0 0 0 0 0 0 0 0 0 0 0 0 0 0.08 0"/>
<feBlend mode="normal" in2="BackgroundImageFix" result="effect1_dropShadow_57_252"/>
<feBlend mode="normal" in="SourceGraphic" in2="effect1_dropShadow_57_252" result="shape"/>
</filter>
<clipPath id="clip0_57_252">
<rect width="200" height="170" fill="white"/>
</clipPath>
</defs>
</svg>
