<svg width="32" height="32" viewBox="0 0 32 32" fill="none" xmlns="http://www.w3.org/2000/svg">
<g clip-path="url(#clip0_47_98)">
<path d="M30.2222 0H1.77778C0.795938 0 0 0.795938 0 1.77778V30.2222C0 31.2041 0.795938 32 1.77778 32H30.2222C31.2041 32 32 31.2041 32 30.2222V1.77778C32 0.795938 31.2041 0 30.2222 0Z" fill="#303030"/>
<path d="M13.6883 16.0363C13.6883 16.0363 15.5273 15.3528 15.5273 12.9714C15.5273 10.5899 13.9519 9.59998 11.8494 9.59998H4.80005V23.0857H11.8494C11.8494 23.0857 15.8338 23.0857 15.8338 19.1013C15.8338 19.1013 15.8338 16.0363 13.6883 16.0363ZM7.86498 12.0519H11.8494C11.8494 12.0519 12.7689 12.0519 12.7689 13.2779C12.7689 14.6632 12.1559 14.8104 11.5429 14.8104H7.86498V12.0519ZM11.5429 20.6337H7.86498V17.2623L11.7237 17.2408C11.7237 17.2408 13.0754 17.2623 13.0754 19.1013C13.0754 20.6337 12.0976 20.6184 11.5429 20.6337ZM22.1997 12.9346C17.0843 12.9346 17.0874 18.0469 17.0874 18.0469C17.0874 18.0469 16.8054 23.0857 22.2702 23.0857C22.2702 23.0857 26.8675 23.5117 26.8675 19.7142H24.4156C24.4156 19.7142 24.4892 21.026 22.2702 21.026C22.2702 21.026 19.8182 21.2682 19.8182 18.7948H26.8675C26.8675 18.7948 27.5847 12.9346 22.1997 12.9346ZM24.4156 16.9558H19.8182C19.8182 16.9558 20.1983 14.8839 22.2518 14.8839C24.3053 14.8839 24.4156 16.9558 24.4156 16.9558ZM19.2052 10.213H25.0286V12.0519H19.2052V10.213Z" fill="white"/>
</g>
<defs>
<clipPath id="clip0_47_98">
<rect width="32" height="32" fill="white"/>
</clipPath>
</defs>
</svg>
