<svg width="76" height="72" viewBox="0 0 76 72" fill="none" xmlns="http://www.w3.org/2000/svg">
<mask id="mask0_646_1298" style="mask-type:luminance" maskUnits="userSpaceOnUse" x="0" y="46" width="12" height="26">
<path d="M0 46.4132H11.0632V72H0V46.4132Z" fill="white"/>
</mask>
<g mask="url(#mask0_646_1298)">
<path d="M8.84843 46.5706C4.06755 47.9441 0.0249023 51.8235 0.0249023 57.5176V70.7956C0.0249023 70.9514 0.0543138 71.1029 0.114608 71.247C0.173432 71.3911 0.258726 71.5191 0.36902 71.6294C0.479314 71.7411 0.607255 71.8264 0.751373 71.8853C0.895491 71.9456 1.04549 71.975 1.20137 71.975C1.35725 71.975 1.50873 71.9456 1.65284 71.8853C1.79696 71.8264 1.92343 71.7411 2.03373 71.6294C2.14402 71.5191 2.22931 71.3911 2.28961 71.247C2.34843 71.1029 2.37931 70.9514 2.37931 70.7956V57.5176C2.37931 52.3779 6.37637 49.2911 10.7043 48.5544C10.0102 47.9647 9.39108 47.3029 8.84843 46.5706Z" fill="black"/>
</g>
<mask id="mask1_646_1298" style="mask-type:luminance" maskUnits="userSpaceOnUse" x="25" y="46" width="12" height="26">
<path d="M25.7456 46.4132H36.6633V72H25.7456V46.4132Z" fill="white"/>
</mask>
<g mask="url(#mask1_646_1298)">
<path d="M27.6928 46.5706C27.1501 47.3029 26.531 47.9647 25.8369 48.5544C30.1663 49.2911 34.1634 52.3779 34.1634 57.5176V70.7956C34.1634 70.9514 34.1928 71.1029 34.2516 71.247C34.3119 71.3911 34.3972 71.5191 34.5075 71.6294C34.6178 71.7411 34.7457 71.8264 34.8899 71.8853C35.034 71.9456 35.184 71.975 35.3399 71.975C35.4957 71.975 35.6457 71.9456 35.7899 71.8853C35.934 71.8264 36.0619 71.7411 36.1722 71.6294C36.2825 71.5191 36.3678 71.3911 36.4281 71.247C36.4869 71.1029 36.5178 70.9514 36.5178 70.7956V57.5176C36.5178 51.8235 32.4737 47.9441 27.6928 46.5706Z" fill="black"/>
</g>
<path d="M18.2706 30.0883C17.9618 30.0883 17.6545 30.103 17.3486 30.1338C17.0412 30.1647 16.7368 30.2088 16.4339 30.2706C16.1324 30.3309 15.8339 30.4059 15.5383 30.4956C15.2427 30.5853 14.953 30.6897 14.6692 30.8074C14.3839 30.9265 14.1059 31.0574 13.8339 31.2044C13.5618 31.35 13.2971 31.5088 13.0412 31.6809C12.7854 31.8515 12.5383 32.0368 12.3001 32.2324C12.0618 32.428 11.8339 32.6353 11.6148 32.8544C11.3971 33.0735 11.1912 33.3015 10.9956 33.5412C10.8001 33.7794 10.6162 34.028 10.4456 34.2853C10.2736 34.5427 10.1162 34.8074 9.97065 35.0794C9.82506 35.353 9.69417 35.6309 9.57506 35.9177C9.45741 36.203 9.35447 36.4941 9.26476 36.7897C9.17506 37.0853 9.10006 37.3853 9.03976 37.6883C8.98094 37.9912 8.93535 38.2971 8.90447 38.6044C8.87506 38.9118 8.86035 39.2206 8.86035 39.5294C8.86035 39.8383 8.87506 40.1471 8.90594 40.4544C8.93535 40.7618 8.98094 41.0677 9.04123 41.3706C9.10153 41.6735 9.17653 41.9735 9.26623 42.2691C9.35594 42.5647 9.45888 42.8559 9.578 43.1412C9.69565 43.4265 9.82653 43.7059 9.97212 43.978C10.1177 44.2515 10.2765 44.5162 10.4471 44.7735C10.6192 45.0294 10.803 45.278 10.9986 45.5162C11.1942 45.7559 11.4001 45.9838 11.6192 46.203C11.8368 46.4221 12.0648 46.6294 12.303 46.825C12.5412 47.0206 12.7883 47.2044 13.0456 47.3765C13.3015 47.5485 13.5662 47.7074 13.8383 47.853C14.1089 47.9985 14.3883 48.1309 14.6721 48.2485C14.9574 48.3662 15.2471 48.4706 15.5427 48.5603C15.8383 48.65 16.1368 48.725 16.4383 48.7853C16.7412 48.8456 17.0456 48.8912 17.353 48.9206C17.6589 48.9515 17.9662 48.9662 18.2751 48.9662C18.5839 48.9662 18.8912 48.9515 19.1986 48.9206C19.5045 48.8912 19.8089 48.8456 20.1118 48.7853C20.4133 48.725 20.7133 48.65 21.0074 48.5603C21.303 48.4706 21.5927 48.3662 21.878 48.2471C22.1618 48.1294 22.4412 47.9971 22.7118 47.8515C22.9839 47.7059 23.2486 47.5471 23.5045 47.375C23.7618 47.203 24.0089 47.0191 24.2471 46.8235C24.4853 46.628 24.7133 46.4206 24.9309 46.2015C25.1486 45.9824 25.3559 45.7544 25.5515 45.5147C25.7471 45.2765 25.9309 45.028 26.1015 44.7706C26.2736 44.5147 26.4309 44.2485 26.5765 43.9765C26.7221 43.7044 26.853 43.425 26.9721 43.1397C27.0898 42.853 27.1927 42.5633 27.2824 42.2677C27.3721 41.9706 27.4471 41.6721 27.5074 41.3691C27.5677 41.0647 27.6133 40.7603 27.6427 40.453C27.6736 40.1441 27.6883 39.8368 27.6883 39.528C27.6883 39.2177 27.6736 38.9088 27.6427 38.6015C27.6133 38.2941 27.5677 37.9883 27.5074 37.6853C27.4471 37.3824 27.3721 37.0824 27.2824 36.7868C27.1927 36.4912 27.0898 36.2 26.9706 35.9147C26.853 35.628 26.7221 35.35 26.5765 35.0765C26.4309 34.8044 26.2721 34.5397 26.1015 34.2824C25.9295 34.025 25.7456 33.7765 25.5501 33.5383C25.3545 33.2985 25.1471 33.0706 24.9295 32.8515C24.7118 32.6324 24.4839 32.425 24.2442 32.2294C24.0059 32.0338 23.7589 31.85 23.503 31.678C23.2456 31.5059 22.9824 31.3471 22.7103 31.2015C22.4383 31.0559 22.1589 30.9236 21.8751 30.8059C21.5898 30.6868 21.3001 30.5838 21.0045 30.4941C20.7089 30.4044 20.4103 30.3294 20.1074 30.2691C19.8059 30.2088 19.5001 30.1633 19.1942 30.1324C18.8868 30.103 18.5795 30.0883 18.2706 30.0883ZM18.2706 46.6074C18.0398 46.6074 17.8089 46.5956 17.5795 46.5721C17.3486 46.55 17.1206 46.5162 16.8942 46.4706C16.6662 46.425 16.4427 46.3691 16.2221 46.3015C16.0001 46.2338 15.7824 46.1559 15.5692 46.0677C15.3559 45.978 15.1471 45.8794 14.9427 45.7691C14.7398 45.6603 14.5412 45.5412 14.3486 45.4118C14.1559 45.2838 13.9706 45.1456 13.7927 44.9985C13.6133 44.8515 13.4427 44.6956 13.2795 44.5324C13.1162 44.3677 12.9604 44.1956 12.8148 44.0162C12.6677 43.8383 12.5295 43.6515 12.4015 43.4588C12.2736 43.2662 12.1545 43.0677 12.0456 42.8633C11.9368 42.6588 11.8383 42.4485 11.7501 42.2353C11.6604 42.0206 11.5839 41.803 11.5162 41.5809C11.4486 41.3588 11.3927 41.1338 11.3486 40.9074C11.303 40.6794 11.2692 40.45 11.2471 40.2191C11.2236 39.9883 11.2133 39.7574 11.2133 39.525C11.2133 39.2941 11.2236 39.0618 11.2471 38.8324C11.2692 38.6015 11.303 38.3721 11.3486 38.1441C11.3942 37.9177 11.4501 37.6927 11.5177 37.4706C11.5839 37.2485 11.6618 37.0309 11.7501 36.8162C11.8398 36.603 11.9383 36.3927 12.0471 36.1883C12.1559 35.9838 12.2751 35.7853 12.403 35.5927C12.5324 35.4 12.6692 35.2147 12.8162 35.0353C12.9633 34.8559 13.1177 34.6838 13.2809 34.5206C13.4456 34.3559 13.6162 34.2015 13.7956 34.0544C13.9736 33.9074 14.1589 33.7691 14.3515 33.6397C14.5442 33.5118 14.7427 33.3927 14.9456 33.2838C15.1501 33.1735 15.3589 33.075 15.5721 32.9868C15.7854 32.8971 16.003 32.8191 16.2251 32.753C16.4456 32.6853 16.6706 32.6294 16.8971 32.5838C17.1236 32.5383 17.3515 32.5044 17.5824 32.4824C17.8118 32.4588 18.0427 32.4471 18.2736 32.4471C18.5059 32.4471 18.7353 32.4588 18.9662 32.4824C19.1956 32.5044 19.4251 32.5383 19.6515 32.5838C19.878 32.6294 20.1015 32.6853 20.3236 32.753C20.5442 32.8206 20.7618 32.8985 20.9765 32.9868C21.1898 33.075 21.3986 33.175 21.6015 33.2838C21.8059 33.3927 22.0045 33.5118 22.1956 33.6412C22.3883 33.7706 22.5736 33.9074 22.753 34.0544C22.9309 34.2015 23.103 34.3574 23.2662 34.5221C23.4295 34.6853 23.5853 34.8574 23.7309 35.0368C23.878 35.2162 24.0162 35.4015 24.1442 35.5941C24.2721 35.7868 24.3912 35.9853 24.5001 36.1897C24.6089 36.3941 24.7074 36.6044 24.7971 36.8177C24.8853 37.0324 24.9633 37.25 25.0295 37.4721C25.0971 37.6941 25.153 37.9191 25.1986 38.1456C25.2427 38.3735 25.2765 38.603 25.3001 38.8338C25.3221 39.0647 25.3339 39.2956 25.3339 39.528C25.3339 39.7588 25.3221 39.9897 25.2986 40.2206C25.2765 40.4515 25.2412 40.6809 25.1971 40.9074C25.1515 41.1353 25.0956 41.3603 25.028 41.5824C24.9603 41.803 24.8824 42.0221 24.7942 42.2353C24.7045 42.45 24.6059 42.6588 24.4971 42.8633C24.3883 43.0677 24.2692 43.2662 24.1412 43.4588C24.0118 43.6515 23.8751 43.8383 23.728 44.0162C23.5809 44.1956 23.4265 44.3677 23.2618 44.5309C23.0986 44.6956 22.928 44.8515 22.7486 44.9985C22.5706 45.1456 22.3853 45.2824 22.1927 45.4118C22.0001 45.5412 21.8015 45.6588 21.5986 45.7691C21.3942 45.878 21.1854 45.978 20.9721 46.0662C20.7589 46.1544 20.5412 46.2324 20.3206 46.3C20.0986 46.3677 19.8751 46.4235 19.6486 46.4691C19.4206 46.5147 19.1927 46.5485 18.9633 46.5721C18.7324 46.5956 18.5015 46.6059 18.2706 46.6074Z" fill="black"/>
<mask id="mask2_646_1298" style="mask-type:luminance" maskUnits="userSpaceOnUse" x="6" y="67" width="4" height="5">
<path d="M6.92188 67.1191H9.55717V72H6.92188V67.1191Z" fill="white"/>
</mask>
<g mask="url(#mask2_646_1298)">
<path d="M8.26436 67.2809C8.10848 67.2809 7.95848 67.3103 7.81436 67.3706C7.67024 67.4294 7.5423 67.5147 7.43201 67.625C7.32171 67.7368 7.23642 67.8632 7.1776 68.0088C7.1173 68.1529 7.08789 68.3029 7.08789 68.4603V70.8206C7.08789 70.9765 7.1173 71.1265 7.1776 71.2721C7.23642 71.4162 7.32171 71.5441 7.43201 71.6544C7.5423 71.7647 7.67024 71.85 7.81436 71.9103C7.95848 71.9706 8.10848 72 8.26436 72C8.42024 72 8.57024 71.9706 8.71436 71.9103C8.85848 71.85 8.98642 71.7647 9.09671 71.6544C9.20701 71.5441 9.2923 71.4162 9.3526 71.2721C9.41142 71.1265 9.4423 70.9765 9.4423 70.8206V68.4603C9.4423 68.3029 9.41142 68.1529 9.3526 68.0088C9.2923 67.8632 9.20701 67.7368 9.09671 67.625C8.98642 67.5147 8.85848 67.4294 8.71436 67.3706C8.57024 67.3103 8.42024 67.2809 8.26436 67.2809Z" fill="black"/>
</g>
<mask id="mask3_646_1298" style="mask-type:luminance" maskUnits="userSpaceOnUse" x="26" y="67" width="4" height="5">
<path d="M26.875 67.1191H29.5103V72H26.875V67.1191Z" fill="white"/>
</mask>
<g mask="url(#mask3_646_1298)">
<path d="M28.2766 67.2809C28.1207 67.2809 27.9707 67.3103 27.8266 67.3706C27.6825 67.4294 27.5545 67.5147 27.4442 67.625C27.3339 67.7368 27.2486 67.8632 27.1898 68.0088C27.1295 68.1529 27.1001 68.3029 27.1001 68.4603V70.8206C27.1001 70.9765 27.1295 71.1265 27.1898 71.2721C27.2486 71.4162 27.3339 71.5441 27.4442 71.6544C27.5545 71.7647 27.6825 71.85 27.8266 71.9103C27.9707 71.9706 28.1207 72 28.2766 72C28.4325 72 28.5825 71.9706 28.728 71.9103C28.8722 71.85 28.9986 71.7647 29.1089 71.6544C29.2192 71.5441 29.3045 71.4162 29.3648 71.2721C29.4236 71.1265 29.4545 70.9765 29.4545 70.8206V68.4603C29.4545 68.3029 29.4236 68.1529 29.3648 68.0088C29.3045 67.8632 29.2192 67.7368 29.1089 67.625C28.9986 67.5147 28.8722 67.4294 28.7266 67.3706C28.5824 67.3103 28.4325 67.2809 28.2766 67.2809Z" fill="black"/>
</g>
<mask id="mask4_646_1298" style="mask-type:luminance" maskUnits="userSpaceOnUse" x="38" y="46" width="12" height="26">
<path d="M38.5454 46.4132H49.8395V72H38.5454V46.4132Z" fill="white"/>
</mask>
<g mask="url(#mask4_646_1298)">
<path d="M47.6956 46.5706C42.9147 47.9441 38.8706 51.8235 38.8706 57.5176V70.7956C38.8706 70.9514 38.9015 71.1029 38.9603 71.247C39.0206 71.3911 39.1059 71.5191 39.2162 71.6294C39.3265 71.7411 39.4544 71.8264 39.5985 71.8853C39.7427 71.9456 39.8927 71.975 40.0485 71.975C40.2044 71.975 40.3544 71.9456 40.4985 71.8853C40.6427 71.8264 40.7706 71.7411 40.8809 71.6294C40.9912 71.5191 41.0765 71.3911 41.1353 71.247C41.1956 71.1029 41.225 70.9514 41.225 70.7956V57.5176C41.225 52.3779 45.2221 49.2911 49.5515 48.5544C48.8574 47.9647 48.2382 47.3029 47.6956 46.5706Z" fill="black"/>
</g>
<mask id="mask5_646_1298" style="mask-type:luminance" maskUnits="userSpaceOnUse" x="64" y="46" width="12" height="26">
<path d="M64.522 46.4132H75.3881V72H64.522V46.4132Z" fill="white"/>
</mask>
<g mask="url(#mask5_646_1298)">
<path d="M66.5395 46.5706C65.9968 47.3029 65.3777 47.9647 64.6836 48.5544C69.0115 49.2911 73.0086 52.3779 73.0086 57.5176V70.7956C73.0086 70.9514 73.0395 71.1029 73.0983 71.247C73.1586 71.3911 73.2439 71.5191 73.3542 71.6294C73.4645 71.7411 73.5909 71.8264 73.7351 71.8853C73.8792 71.9456 74.0307 71.975 74.1865 71.975C74.3424 71.975 74.4924 71.9456 74.6365 71.8853C74.7807 71.8264 74.9086 71.7411 75.0189 71.6294C75.1292 71.5191 75.2145 71.3911 75.2733 71.247C75.3336 71.1029 75.363 70.9514 75.363 70.7956V57.5176C75.363 51.8235 71.3204 47.9441 66.5395 46.5706Z" fill="black"/>
</g>
<path d="M57.1173 30.0883C56.8085 30.0883 56.5012 30.103 56.1938 30.1338C55.8879 30.1647 55.5835 30.2088 55.2806 30.2706C54.9776 30.3309 54.6791 30.4059 54.385 30.4956C54.0894 30.5853 53.7997 30.6897 53.5144 30.8074C53.2306 30.9265 52.9512 31.0574 52.6806 31.2044C52.4085 31.35 52.1438 31.5088 51.8879 31.6809C51.632 31.8515 51.3835 32.0368 51.1453 32.2324C50.907 32.428 50.6791 32.6353 50.4614 32.8544C50.2438 33.0735 50.0364 33.3015 49.8409 33.5412C49.6453 33.7794 49.4629 34.028 49.2909 34.2853C49.1203 34.5427 48.9614 34.8074 48.8173 35.0794C48.6717 35.353 48.5394 35.6309 48.4217 35.9177C48.3041 36.203 48.1997 36.4941 48.1114 36.7897C48.0217 37.0853 47.9467 37.3853 47.8864 37.6883C47.8262 37.9912 47.782 38.2971 47.7512 38.6044C47.7217 38.9118 47.7056 39.2206 47.7056 39.5294C47.707 39.8383 47.7217 40.1471 47.7512 40.4544C47.782 40.7618 47.8276 41.0677 47.8879 41.3706C47.9482 41.6735 48.0232 41.9735 48.1114 42.2691C48.2012 42.5647 48.3056 42.8559 48.4232 43.1412C48.5423 43.4265 48.6732 43.7059 48.8188 43.978C48.9644 44.2515 49.1217 44.5162 49.2938 44.7735C49.4644 45.0294 49.6482 45.278 49.8438 45.5162C50.0394 45.7559 50.2467 45.9838 50.4644 46.203C50.682 46.4221 50.9114 46.6294 51.1497 46.825C51.3879 47.0206 51.635 47.2044 51.8909 47.3765C52.1482 47.5485 52.4114 47.7074 52.6835 47.853C52.9556 47.9985 53.2335 48.1309 53.5188 48.2485C53.8041 48.3662 54.0938 48.4706 54.3894 48.5603C54.6835 48.65 54.982 48.725 55.285 48.7853C55.5879 48.8456 55.8923 48.8912 56.1982 48.9206C56.5056 48.9515 56.8129 48.9662 57.1217 48.9662C57.4291 48.9662 57.7379 48.9515 58.0438 48.9206C58.3512 48.8912 58.6556 48.8456 58.9585 48.7853C59.26 48.725 59.5585 48.65 59.8541 48.5603C60.1497 48.4706 60.4394 48.3662 60.7232 48.2471C61.0085 48.1294 61.2864 47.9971 61.5585 47.8515C61.8306 47.7059 62.0953 47.5471 62.3512 47.375C62.607 47.203 62.8541 47.0191 63.0923 46.8235C63.332 46.628 63.56 46.4206 63.7776 46.2015C63.9953 45.9824 64.2026 45.7544 64.3982 45.5147C64.5938 45.2765 64.7761 45.028 64.9482 44.7706C65.1188 44.5147 65.2776 44.2485 65.4232 43.9765C65.5688 43.7044 65.6997 43.425 65.8173 43.1397C65.9364 42.853 66.0394 42.5633 66.1291 42.2677C66.2188 41.9706 66.2938 41.6721 66.3541 41.3691C66.4144 41.0647 66.4585 40.7603 66.4894 40.453C66.5188 40.1441 66.535 39.8368 66.535 39.528C66.535 39.2177 66.5188 38.9088 66.4894 38.6015C66.4585 38.2941 66.4129 37.9883 66.3541 37.6853C66.2938 37.3824 66.2188 37.0824 66.1291 36.7868C66.0394 36.4912 65.935 36.2 65.8173 35.9147C65.6997 35.628 65.5673 35.35 65.4217 35.0765C65.2761 34.8044 65.1188 34.5397 64.9467 34.2824C64.7761 34.025 64.5923 33.7765 64.3967 33.5383C64.2011 33.2985 63.9938 33.0706 63.7761 32.8515C63.5585 32.6324 63.3291 32.425 63.0909 32.2294C62.8526 32.0338 62.6056 31.85 62.3482 31.678C62.0923 31.5059 61.8276 31.3471 61.5556 31.2015C61.2835 31.0559 61.0056 30.9236 60.7203 30.8059C60.4364 30.6868 60.1453 30.5838 59.8512 30.4941C59.5556 30.4044 59.257 30.3294 58.9541 30.2691C58.6512 30.2088 58.3467 30.1633 58.0394 30.1324C57.7335 30.103 57.4262 30.0883 57.1173 30.0883ZM57.1173 46.6074C56.8864 46.6074 56.6556 46.5956 56.4247 46.5721C56.1953 46.55 55.9659 46.5162 55.7394 46.4706C55.5129 46.425 55.2894 46.3691 55.0673 46.3015C54.8467 46.2338 54.6291 46.1559 54.4159 46.0677C54.2026 45.978 53.9938 45.8794 53.7894 45.7691C53.585 45.6603 53.3879 45.5412 53.1953 45.4118C53.0026 45.2838 52.8173 45.1456 52.6394 44.9985C52.46 44.8515 52.2894 44.6956 52.1262 44.5324C51.9614 44.3677 51.807 44.1956 51.66 44.0162C51.5144 43.8383 51.3762 43.6515 51.2482 43.4588C51.1188 43.2662 51.0012 43.0677 50.8923 42.8633C50.7835 42.6588 50.6835 42.4485 50.5953 42.2353C50.507 42.0206 50.4291 41.803 50.3629 41.5809C50.2953 41.3588 50.2394 41.1338 50.1938 40.9074C50.1497 40.6794 50.1159 40.45 50.0923 40.2191C50.0703 39.9883 50.0585 39.7574 50.0585 39.525C50.0585 39.2941 50.0703 39.0618 50.0938 38.8324C50.1159 38.6015 50.1497 38.3721 50.1953 38.1441C50.2394 37.9177 50.2967 37.6927 50.3629 37.4706C50.4306 37.2485 50.5085 37.0309 50.5967 36.8162C50.685 36.603 50.785 36.3927 50.8938 36.1883C51.0026 35.9838 51.1217 35.7853 51.2497 35.5927C51.3776 35.4 51.5159 35.2147 51.6629 35.0353C51.8085 34.8559 51.9644 34.6838 52.1276 34.5206C52.2909 34.3559 52.4629 34.2015 52.6409 34.0544C52.8203 33.9074 53.0056 33.7691 53.1982 33.6397C53.3894 33.5118 53.5879 33.3927 53.7923 33.2838C53.9967 33.1735 54.2056 33.075 54.4188 32.9868C54.632 32.8971 54.8497 32.8191 55.0703 32.753C55.2923 32.6853 55.5159 32.6294 55.7423 32.5838C55.9703 32.5383 56.1982 32.5044 56.4276 32.4824C56.6585 32.4588 56.8894 32.4471 57.1203 32.4471C57.3512 32.4471 57.582 32.4588 57.8129 32.4824C58.0423 32.5044 58.2703 32.5383 58.4982 32.5838C58.7247 32.6294 58.9482 32.6853 59.1703 32.753C59.3909 32.8206 59.6085 32.8985 59.8217 32.9868C60.035 33.075 60.2438 33.175 60.4482 33.2838C60.6526 33.3927 60.8497 33.5118 61.0423 33.6412C61.235 33.7706 61.4203 33.9074 61.5997 34.0544C61.7776 34.2015 61.9482 34.3574 62.1129 34.5221C62.2762 34.6853 62.4306 34.8574 62.5776 35.0368C62.7247 35.2162 62.8614 35.4015 62.9909 35.5941C63.1188 35.7868 63.2379 35.9853 63.3467 36.1897C63.4556 36.3941 63.5541 36.6044 63.6423 36.8177C63.7306 37.0324 63.8085 37.25 63.8761 37.4721C63.9438 37.6941 63.9997 37.9191 64.0438 38.1456C64.0894 38.3735 64.1232 38.603 64.1467 38.8338C64.1688 39.0647 64.1806 39.2956 64.1806 39.528C64.1791 39.7588 64.1688 39.9897 64.1453 40.2206C64.1217 40.4515 64.0879 40.6809 64.0423 40.9074C63.9982 41.1353 63.9409 41.3603 63.8732 41.5824C63.807 41.803 63.7291 42.0221 63.6394 42.2353C63.5511 42.45 63.4526 42.6588 63.3438 42.8633C63.2335 43.0677 63.1159 43.2662 62.9864 43.4588C62.8585 43.6515 62.7203 43.8383 62.5732 44.0162C62.4276 44.1956 62.2717 44.3677 62.1085 44.5309C61.9453 44.6956 61.7732 44.85 61.5953 44.9985C61.4159 45.1456 61.2306 45.2824 61.0394 45.4118C60.8467 45.5412 60.6482 45.6588 60.4453 45.7691C60.2409 45.878 60.032 45.978 59.8188 46.0662C59.6041 46.1544 59.3879 46.2324 59.1659 46.3C58.9453 46.3677 58.7203 46.4235 58.4938 46.4691C58.2673 46.5147 58.0394 46.5485 57.8085 46.5721C57.5791 46.5956 57.3482 46.6059 57.1173 46.6074Z" fill="black"/>
<mask id="mask6_646_1298" style="mask-type:luminance" maskUnits="userSpaceOnUse" x="45" y="67" width="4" height="5">
<path d="M45.6982 67.1191H48.3335V72H45.6982V67.1191Z" fill="white"/>
</mask>
<g mask="url(#mask6_646_1298)">
<path d="M47.1115 67.2809C46.9557 67.2809 46.8057 67.3103 46.6601 67.3706C46.5159 67.4294 46.3895 67.5147 46.2792 67.625C46.1689 67.7368 46.0836 67.8632 46.0233 68.0088C45.9645 68.1529 45.9336 68.3029 45.9336 68.4603V70.8206C45.9336 70.9765 45.9645 71.1265 46.0233 71.2721C46.0836 71.4162 46.1689 71.5441 46.2792 71.6544C46.3895 71.7647 46.5159 71.85 46.6601 71.9103C46.8057 71.9706 46.9557 72 47.1115 72C47.2674 72 47.4174 71.9706 47.5615 71.9103C47.7057 71.85 47.8336 71.7647 47.9439 71.6544C48.0542 71.5441 48.1395 71.4162 48.1983 71.2721C48.2586 71.1265 48.288 70.9765 48.288 70.8206V68.4603C48.288 68.3029 48.2586 68.1529 48.1983 68.0088C48.1395 67.8632 48.0542 67.7368 47.9439 67.625C47.8336 67.5147 47.7057 67.4294 47.5615 67.3706C47.4174 67.3103 47.2674 67.2809 47.1115 67.2809Z" fill="black"/>
</g>
<mask id="mask7_646_1298" style="mask-type:luminance" maskUnits="userSpaceOnUse" x="65" y="67" width="4" height="5">
<path d="M65.6514 67.1191H68.6631V72H65.6514V67.1191Z" fill="white"/>
</mask>
<g mask="url(#mask7_646_1298)">
<path d="M67.1233 67.2809C66.9674 67.2809 66.8174 67.3103 66.6733 67.3706C66.5291 67.4294 66.4012 67.5147 66.2909 67.625C66.1806 67.7368 66.0953 67.8632 66.035 68.0088C65.9762 68.1529 65.9453 68.3029 65.9453 68.4603V70.8206C65.9453 70.9765 65.9762 71.1265 66.035 71.2721C66.0953 71.4162 66.1806 71.5441 66.2909 71.6544C66.4012 71.7647 66.5277 71.85 66.6733 71.9103C66.8174 71.9706 66.9674 72 67.1233 72C67.2791 72 67.4291 71.9706 67.5733 71.9103C67.7174 71.85 67.8453 71.7647 67.9556 71.6544C68.0659 71.5441 68.1512 71.4162 68.21 71.2721C68.2703 71.1265 68.2997 70.9765 68.2997 70.8206V68.4603C68.2997 68.3029 68.2703 68.1529 68.21 68.0088C68.1512 67.8632 68.0659 67.7368 67.9556 67.625C67.8453 67.5147 67.7174 67.4294 67.5733 67.3706C67.4291 67.3103 67.2791 67.2809 67.1233 67.2809Z" fill="black"/>
</g>
<mask id="mask8_646_1298" style="mask-type:luminance" maskUnits="userSpaceOnUse" x="0" y="0" width="28" height="29">
<path d="M0 0H27.2515V28.3426H0V0Z" fill="white"/>
</mask>
<g mask="url(#mask8_646_1298)">
<path d="M13.5617 25.8206C15.3808 25.8221 17.1337 25.4809 18.8205 24.7956C18.8205 24.7956 24.7587 28.1588 24.7705 28.1647C24.9881 28.2823 25.219 28.3294 25.4646 28.3059C25.7102 28.2809 25.9278 28.1897 26.1175 28.0323C26.2102 27.9529 26.2867 27.8618 26.3514 27.7588C26.4146 27.6559 26.4617 27.5456 26.4911 27.4279C26.5205 27.3103 26.5322 27.1897 26.5249 27.0691C26.5175 26.9485 26.4925 26.8309 26.4499 26.7176L24.2175 20.8559C24.6778 20.3029 25.0867 19.7132 25.444 19.0882C25.8028 18.4632 26.1043 17.8118 26.3499 17.1353C26.5955 16.4573 26.7808 15.7647 26.9072 15.0544C27.0322 14.3456 27.097 13.6309 27.0999 12.9103C27.0999 5.79117 21.0264 0 13.5617 0C6.09696 0 0.0249023 5.79117 0.0249023 12.9103C0.0249023 20.0279 6.09696 25.8206 13.5617 25.8206ZM13.5617 2.36029C19.7278 2.36029 24.7455 7.09265 24.7455 12.9103C24.7411 13.5456 24.6793 14.1765 24.5572 14.8C24.4367 15.425 24.2587 16.0323 24.0234 16.6221C23.7896 17.2132 23.5014 17.7779 23.1617 18.3147C22.822 18.8515 22.4352 19.3515 22.0014 19.8147C21.8499 19.9794 21.7528 20.1721 21.7102 20.3926C21.6675 20.6118 21.6867 20.8265 21.7661 21.0368L23.0852 24.5L19.472 22.4529C19.3087 22.3603 19.1323 22.3103 18.9455 22.3015C18.7573 22.2941 18.5778 22.3279 18.4058 22.4059C16.8675 23.1103 15.2528 23.4618 13.5617 23.4603C7.39549 23.4603 2.37931 18.7265 2.37931 12.9103C2.37931 7.09265 7.39549 2.36029 13.5617 2.36029Z" fill="black"/>
</g>
<path d="M14.682 20.0588C14.682 20.2162 14.6526 20.3662 14.5923 20.5117C14.5335 20.6559 14.4482 20.7838 14.3379 20.8941C14.2276 21.0044 14.0997 21.0897 13.9556 21.15C13.8115 21.2103 13.6615 21.2397 13.5056 21.2397C13.3497 21.2397 13.1997 21.2103 13.0541 21.15C12.91 21.0897 12.7835 21.0044 12.6732 20.8941C12.5629 20.7838 12.4776 20.6559 12.4173 20.5117C12.3585 20.3662 12.3276 20.2162 12.3276 20.0588C12.3276 19.9029 12.3585 19.7529 12.4173 19.6073C12.4776 19.4632 12.5629 19.3353 12.6732 19.225C12.7835 19.1147 12.91 19.0294 13.0541 18.9691C13.1997 18.9088 13.3497 18.8794 13.5056 18.8794C13.6615 18.8794 13.8115 18.9088 13.9556 18.9691C14.0997 19.0294 14.2276 19.1147 14.3379 19.225C14.4482 19.3353 14.5335 19.4632 14.5923 19.6073C14.6526 19.7529 14.682 19.9029 14.682 20.0588Z" fill="black"/>
<path d="M10.031 11.3868C10.1869 11.3868 10.3369 11.3574 10.481 11.2971C10.6251 11.2382 10.753 11.153 10.8633 11.0412C10.9736 10.9309 11.0589 10.803 11.1177 10.6588C11.178 10.5147 11.2074 10.3632 11.2074 10.2074C11.2119 9.96472 11.2648 9.73383 11.3648 9.51325C11.4648 9.29119 11.603 9.10001 11.7824 8.93678C12.0427 8.69707 12.3383 8.51913 12.6707 8.40148C13.0045 8.28383 13.3471 8.23825 13.6986 8.26325C14.8633 8.31619 15.8574 9.14413 15.9133 10.1088C15.9148 10.3118 15.8854 10.5088 15.8236 10.7015C15.7633 10.8956 15.6751 11.0735 15.5589 11.2397C15.4413 11.4044 15.303 11.5471 15.1413 11.6691C14.9795 11.7897 14.803 11.8838 14.6133 11.95C14.2927 12.0721 13.9971 12.2397 13.7251 12.45C13.4545 12.6618 13.2192 12.9074 13.0221 13.1882C12.8236 13.4691 12.6707 13.7735 12.5619 14.1C12.453 14.4265 12.3942 14.7603 12.3854 15.1044V16.4397C12.3854 16.5956 12.4148 16.7471 12.4751 16.8912C12.5339 17.0353 12.6192 17.1632 12.7295 17.2735C12.8398 17.3853 12.9677 17.4706 13.1118 17.5294C13.256 17.5897 13.406 17.6191 13.5618 17.6191C13.7177 17.6191 13.8677 17.5897 14.0133 17.5294C14.1574 17.4706 14.2839 17.3853 14.3942 17.2735C14.5045 17.1632 14.5898 17.0353 14.6501 16.8912C14.7089 16.7471 14.7398 16.5956 14.7398 16.4397V15.1044C14.7604 14.8794 14.8413 14.678 14.9824 14.5C15.1236 14.3221 15.303 14.1985 15.5177 14.128C15.7251 14.05 15.9251 13.9559 16.1177 13.8456C16.3118 13.7353 16.4942 13.6118 16.6677 13.4721C16.8413 13.3338 17.003 13.1824 17.153 13.0191C17.303 12.8544 17.4383 12.6794 17.5604 12.4941C17.6839 12.3088 17.7913 12.1147 17.8824 11.9118C17.9751 11.7103 18.0516 11.5015 18.1104 11.2868C18.1707 11.0735 18.2133 10.8559 18.2383 10.6338C18.2648 10.4132 18.2721 10.1912 18.2633 9.96913C18.1354 7.80001 16.178 6.01472 13.8074 5.90589C13.1339 5.86913 12.481 5.96619 11.8471 6.1956C11.2133 6.42648 10.6501 6.7706 10.156 7.23089C9.7442 7.61472 9.42362 8.06619 9.19714 8.58383C8.97067 9.10148 8.85597 9.64266 8.85303 10.2074C8.85303 10.3632 8.88391 10.5147 8.94273 10.6588C9.00303 10.803 9.08832 10.9309 9.19862 11.0412C9.30891 11.153 9.43538 11.2382 9.58097 11.2971C9.72509 11.3574 9.87509 11.3868 10.031 11.3868Z" fill="black"/>
<path d="M62.9472 20.0588C62.9472 20.2162 62.9163 20.3662 62.8575 20.5117C62.7972 20.6559 62.7119 20.7838 62.6016 20.8941C62.4913 21.0044 62.3648 21.0897 62.2207 21.15C62.0766 21.2103 61.9251 21.2397 61.7692 21.2397C61.6134 21.2397 61.4634 21.2103 61.3192 21.15C61.1751 21.0897 61.0472 21.0044 60.9369 20.8941C60.8266 20.7838 60.7413 20.6559 60.6825 20.5117C60.6222 20.3662 60.5928 20.2162 60.5928 20.0588C60.5928 19.9029 60.6222 19.7529 60.6825 19.6073C60.7413 19.4632 60.8266 19.3353 60.9369 19.225C61.0472 19.1147 61.1751 19.0294 61.3192 18.9691C61.4634 18.9088 61.6134 18.8794 61.7692 18.8794C61.9251 18.8794 62.0766 18.9088 62.2207 18.9691C62.3648 19.0294 62.4913 19.1147 62.6016 19.225C62.7119 19.3353 62.7972 19.4632 62.8575 19.6073C62.9163 19.7529 62.9472 19.9029 62.9472 20.0588Z" fill="black"/>
<path d="M58.2941 11.3868C58.45 11.3868 58.6015 11.3574 58.7456 11.2971C58.8897 11.2382 59.0162 11.153 59.1265 11.0412C59.2368 10.9309 59.3221 10.803 59.3824 10.6588C59.4412 10.5147 59.4721 10.3632 59.4721 10.2074C59.4765 9.96472 59.528 9.73383 59.628 9.51325C59.728 9.29119 59.8677 9.10001 60.0471 8.93678C60.3059 8.69707 60.6015 8.51913 60.9353 8.40148C61.2677 8.28383 61.6103 8.23825 61.9618 8.26325C63.1265 8.31619 64.1206 9.14413 64.178 10.1088C64.178 10.3118 64.1486 10.5088 64.0883 10.7015C64.028 10.8956 63.9383 11.0735 63.8221 11.2397C63.7059 11.4044 63.5662 11.5471 63.4044 11.6691C63.2441 11.7897 63.0677 11.8838 62.8765 11.95C62.5559 12.0721 62.2603 12.2397 61.9897 12.45C61.7191 12.6618 61.4839 12.9074 61.2853 13.1882C61.0868 13.4691 60.9339 13.7735 60.825 14.1C60.7177 14.4265 60.6589 14.7603 60.6486 15.1044V16.4397C60.6486 16.5956 60.6794 16.7471 60.7383 16.8912C60.7986 17.0353 60.8839 17.1632 60.9941 17.2735C61.1044 17.3853 61.2309 17.4706 61.375 17.5294C61.5191 17.5897 61.6706 17.6191 61.8265 17.6191C61.9824 17.6191 62.1324 17.5897 62.2765 17.5294C62.4206 17.4706 62.5486 17.3853 62.6589 17.2735C62.7691 17.1632 62.8544 17.0353 62.9133 16.8912C62.9736 16.7471 63.003 16.5956 63.003 16.4397V15.1044C63.025 14.8794 63.1059 14.678 63.2471 14.5C63.3883 14.3221 63.5662 14.1985 63.7809 14.128C63.9897 14.05 64.1897 13.9559 64.3824 13.8456C64.575 13.7353 64.7589 13.6118 64.9324 13.4721C65.1059 13.3338 65.2662 13.1824 65.4162 13.0191C65.5662 12.8544 65.703 12.6794 65.825 12.4941C65.9471 12.3088 66.0544 12.1147 66.1471 11.9118C66.2397 11.7103 66.3147 11.5015 66.375 11.2868C66.4339 11.0735 66.4765 10.8559 66.503 10.6338C66.528 10.4132 66.5368 10.1912 66.528 9.96913C66.4 7.80001 64.4412 6.01472 62.0706 5.90589C61.3986 5.86913 60.7456 5.96619 60.1118 6.1956C59.478 6.42648 58.9147 6.7706 58.4206 7.23089C58.0074 7.61472 57.6883 8.06619 57.4618 8.58383C57.2353 9.10148 57.1206 9.64266 57.1177 10.2074C57.1177 10.3632 57.1471 10.5147 57.2074 10.6588C57.2662 10.803 57.3515 10.9309 57.4618 11.0412C57.5721 11.153 57.7 11.2382 57.8441 11.2971C57.9883 11.3574 58.1383 11.3868 58.2941 11.3868Z" fill="black"/>
<mask id="mask9_646_1298" style="mask-type:luminance" maskUnits="userSpaceOnUse" x="47" y="0" width="29" height="29">
<path d="M47.957 0H75.3879V28.3426H47.957V0Z" fill="white"/>
</mask>
<g mask="url(#mask9_646_1298)">
<path d="M48.9381 26.7176C48.8954 26.8309 48.8704 26.9485 48.8631 27.0691C48.8557 27.1897 48.8675 27.3103 48.8969 27.4279C48.9263 27.5456 48.9734 27.6559 49.0366 27.7588C49.1013 27.8618 49.1778 27.9529 49.2704 28.0323C49.4601 28.1912 49.6778 28.2823 49.9234 28.3073C50.169 28.3309 50.4013 28.2838 50.6175 28.1647L56.5675 24.7956C58.2543 25.4809 60.0072 25.8221 61.8263 25.8206C69.291 25.8206 75.3631 20.0279 75.3631 12.9103C75.3631 5.79117 69.291 0 61.8263 0C54.3616 0 48.2881 5.79117 48.2881 12.9103C48.291 13.6309 48.3557 14.3456 48.4807 15.0544C48.6072 15.7647 48.7925 16.4573 49.0381 17.1353C49.2837 17.8118 49.5851 18.4632 49.944 19.0882C50.3013 19.7132 50.7101 20.3029 51.1704 20.8559L48.9381 26.7176ZM50.6425 12.9103C50.6425 7.09265 55.6601 2.36029 61.8263 2.36029C67.9925 2.36029 73.0087 7.09265 73.0087 12.9103C73.0087 18.7265 67.9925 23.4603 61.8263 23.4603C60.1351 23.4618 58.5204 23.1103 56.9822 22.4059C56.8101 22.3294 56.6307 22.2941 56.4425 22.3029C56.2557 22.3103 56.0793 22.3618 55.916 22.4529L52.3028 24.5L53.6219 21.0368C53.7013 20.8265 53.7204 20.6118 53.6778 20.3926C53.6351 20.1721 53.5381 19.9794 53.3866 19.8162C52.9528 19.3515 52.566 18.8515 52.2263 18.3147C51.8866 17.7779 51.5984 17.2132 51.3646 16.6221C51.1293 16.0323 50.9513 15.425 50.8307 14.8C50.7087 14.1765 50.6469 13.5456 50.6425 12.9103Z" fill="black"/>
</g>
<path d="M42.1516 28.225C42.0104 28.0426 41.831 27.9132 41.6134 27.8382C41.3957 27.7617 41.1751 27.7514 40.9516 27.8059L36.3575 28.9117L39.6531 22.3603C39.7236 22.2191 39.7648 22.072 39.7766 21.9161C39.7884 21.7603 39.7692 21.6073 39.7207 21.4588C39.6722 21.3103 39.5957 21.1764 39.4942 21.0573C39.3928 20.9397 39.2722 20.8441 39.1325 20.775C38.9928 20.7044 38.8457 20.6632 38.6898 20.6514C38.5339 20.6397 38.3825 20.6588 38.2339 20.7073C38.0854 20.7559 37.9516 20.8323 37.8339 20.9338C37.7163 21.0367 37.6207 21.1573 37.5516 21.297L33.1119 30.122C33.0089 30.3279 32.9678 30.5441 32.9913 30.7735C33.0148 31.0014 33.0972 31.2059 33.2398 31.3867C33.3825 31.5661 33.5619 31.6941 33.7781 31.7691C33.9942 31.8441 34.2148 31.8544 34.4369 31.8L39.0031 30.7014L35.3501 37.8073C35.2781 37.9456 35.2354 38.0941 35.2237 38.25C35.2104 38.4058 35.2281 38.5588 35.2751 38.7073C35.3222 38.8558 35.3972 38.9911 35.4972 39.1103C35.5987 39.2294 35.7192 39.325 35.8575 39.397C35.9957 39.4691 36.1428 39.5103 36.2987 39.5235C36.4545 39.5367 36.606 39.5191 36.756 39.472C36.9045 39.4235 37.0384 39.35 37.1575 39.2485C37.2766 39.147 37.3722 39.0264 37.4428 38.8882L42.2722 29.4926C42.3781 29.2882 42.4192 29.0706 42.3972 28.8411C42.3751 28.6117 42.2942 28.4059 42.1516 28.225Z" fill="black"/>
</svg>
