<svg width="20" height="20" viewBox="0 0 20 20" fill="none" xmlns="http://www.w3.org/2000/svg">
<g clip-path="url(#clip0_48_104)">
<path d="M18.8889 0H1.11111C0.497461 0 0 0.497461 0 1.11111V18.8889C0 19.5025 0.497461 20 1.11111 20H18.8889C19.5025 20 20 19.5025 20 18.8889V1.11111C20 0.497461 19.5025 0 18.8889 0Z" fill="#303030"/>
<path fill-rule="evenodd" clip-rule="evenodd" d="M4.21725 7.8319H6.61293V15.54H4.21725V7.8319ZM5.41546 4.00025C6.18149 4.00025 6.80388 4.62263 6.80388 5.38866C6.80388 6.15544 6.18149 6.77808 5.41546 6.77808C5.23085 6.78157 5.0474 6.74823 4.87583 6.68C4.70426 6.61177 4.54801 6.51002 4.41622 6.3807C4.28443 6.25138 4.17974 6.09709 4.10827 5.92684C4.03681 5.75659 4 5.5738 4 5.38916C4 5.20452 4.03681 5.02173 4.10827 4.85148C4.17974 4.68124 4.28443 4.52694 4.41622 4.39762C4.54801 4.2683 4.70426 4.16655 4.87583 4.09832C5.0474 4.0301 5.23085 3.99675 5.41546 4.00025ZM8.11561 7.83165H10.4135V8.88497H10.4453C10.7652 8.27902 11.5467 7.6402 12.7121 7.6402C15.1379 7.6402 15.586 9.23675 15.586 11.3123V15.54H13.1918V11.7915C13.1918 10.8978 13.1754 9.74785 11.947 9.74785C10.7005 9.74785 10.5091 10.7215 10.5091 11.727V15.54H8.11537V7.8319L8.11561 7.83165Z" fill="white"/>
</g>
<defs>
<clipPath id="clip0_48_104">
<rect width="20" height="20" fill="white"/>
</clipPath>
</defs>
</svg>
