<svg width="71" height="72" viewBox="0 0 71 72" fill="none" xmlns="http://www.w3.org/2000/svg">
<path fill-rule="evenodd" clip-rule="evenodd" d="M52.9523 23.6323H58.8661C59.4299 23.6323 59.8871 24.0882 59.8871 24.652C59.8871 25.2144 59.4299 25.6716 58.8661 25.6716H52.9523C52.3885 25.6716 51.9313 25.2144 51.9313 24.652C51.9313 24.0882 52.3885 23.6323 52.9523 23.6323ZM47.0346 12.8397C46.6352 12.4428 46.6352 11.7956 47.0346 11.3975L51.216 7.21991C51.6141 6.82051 52.2601 6.82051 52.6595 7.21991C53.0576 7.61801 53.0576 8.26269 52.6595 8.66337L48.478 12.841C48.0786 13.2391 47.4314 13.2378 47.0346 12.8397ZM10.5356 24.652C10.5356 24.0882 10.9928 23.6323 11.5566 23.6323H17.4705C18.0342 23.6323 18.4914 24.0882 18.4914 24.652C18.4914 25.2144 18.0342 25.6716 17.4705 25.6716H11.5566C10.9928 25.6716 10.5356 25.2144 10.5356 24.652ZM17.7633 8.66337C17.3639 8.26269 17.3639 7.61801 17.7633 7.21991C18.1614 6.82051 18.8086 6.82051 19.2067 7.21991L23.3882 11.3975C24.0354 12.0422 23.5679 13.1389 22.6664 13.1389C22.4057 13.1389 22.1437 13.04 21.9447 12.8397L17.7633 8.66337ZM34.1898 6.9271V1.01967C34.1898 0.455899 34.6469 0 35.2107 0C35.7758 0 36.2317 0.455899 36.2317 1.01967V6.9271C36.2317 7.49088 35.7758 7.94678 35.2107 7.94678C34.6469 7.94678 34.1898 7.49088 34.1898 6.9271ZM35.2107 12.6946C40.0047 12.6946 43.9049 16.2108 43.9049 20.536C43.9049 22.3442 43.205 24.11 41.9323 25.5072C40.1113 27.5081 39.6053 28.9066 38.6845 31.258C38.5523 31.24 38.4161 31.2259 38.2774 31.2259H32.1453C32.0066 31.2259 31.8705 31.24 31.7369 31.258C30.8174 28.9079 30.3114 27.5068 28.4891 25.5072C27.2177 24.11 26.5165 22.3442 26.5165 20.536C26.5178 16.2108 30.4167 12.6946 35.2107 12.6946ZM36.2638 38.7322H34.1602C33.2574 38.7322 32.5331 38.0117 32.5331 37.0768H37.8896C37.8896 38.0117 37.1653 38.7322 36.2638 38.7322ZM39.1636 34.1514C39.1636 34.6381 38.7667 35.0375 38.2774 35.0375H32.1453C31.656 35.0375 31.2592 34.6381 31.2592 34.1514C31.2592 33.6634 31.656 33.2665 32.1453 33.2665H38.2774C38.7667 33.2665 39.1636 33.6634 39.1636 34.1514ZM29.2712 30.5658L29.93 32.2443C28.7857 33.5645 29.0516 35.5756 30.4899 36.5631V37.1064C30.4899 39.1277 32.135 40.7741 34.1602 40.7741H36.2638C38.2864 40.7741 39.9328 39.1277 39.9328 37.1064V36.5631C41.3724 35.5743 41.637 33.5658 40.4927 32.2417C41.3467 30.0662 41.768 28.7204 43.4439 26.8801C45.0594 25.1066 45.9481 22.854 45.9481 20.536C45.9481 15.0858 41.131 10.6539 35.2107 10.6539C29.2904 10.6539 24.4759 15.0858 24.4759 20.536C24.4759 22.854 25.3633 25.1066 26.9788 26.8801C28.0075 28.0102 28.7138 29.1467 29.2712 30.5658ZM67.8852 68.1833C67.5398 68.4388 67.2919 68.5981 66.8065 68.5133C66.4597 68.4543 66.2055 68.2899 66.0103 67.9971C64.1404 65.2116 61.6567 63.0374 58.4179 61.3474C57.7411 60.9955 56.9282 61.4848 56.9244 62.2463L56.8858 69.5934C56.8858 69.7898 56.7176 69.9607 56.5173 69.9607H47.6138C47.4134 69.9607 47.2452 69.7898 47.2452 69.5934V57.8838C47.2452 57.4549 46.9755 57.0696 46.5671 56.9245C42.1494 55.3488 38.8258 52.6455 36.4089 48.6618C36.0724 48.1083 36.2304 47.393 36.7672 47.0334C37.1345 46.7868 37.3849 46.6456 37.8588 46.7496C38.203 46.8241 38.4495 47 38.6345 47.3005C43.0368 54.5102 50.814 56.7498 57.6769 58.7263C62.1537 60.1107 65.5877 62.6675 68.1742 66.5408C68.5325 67.0789 68.4066 67.7993 67.8852 68.1833ZM34.0138 48.6618C31.5956 52.6455 28.2733 55.3488 23.8543 56.9245C23.4485 57.0696 23.1763 57.4549 23.1763 57.8838V69.5934C23.1763 69.7898 23.008 69.9607 22.809 69.9607H13.9055C13.7064 69.9607 13.5382 69.7898 13.5382 69.5869L13.4984 62.2463C13.4945 61.4784 12.6752 60.9981 12.0035 61.3474C8.76599 63.0374 6.2823 65.2116 4.41247 67.9971C4.02592 68.5737 3.25025 68.7098 2.69032 68.2976L2.5375 68.1833C2.01739 67.7993 1.88897 67.0789 2.24855 66.5408C4.83369 62.6663 8.26771 60.1107 12.7458 58.7263C19.6087 56.7511 27.3859 54.5102 31.7895 47.3005C32.1517 46.7072 32.9197 46.5377 33.4976 46.9268L33.6542 47.0334C34.191 47.393 34.349 48.1083 34.0138 48.6618ZM69.8732 65.4081C67.0543 61.1856 63.1516 58.2806 58.2715 56.773C58.2651 56.773 58.2587 56.7704 58.2523 56.7678C51.4266 54.8042 44.3685 52.7739 40.3772 46.2372C39.4063 44.6499 37.331 44.1978 35.7861 45.2329L35.2107 45.676C34.3785 44.8926 33.2767 44.5048 32.1273 44.7552C31.2386 44.9491 30.5195 45.4628 30.0443 46.2372C26.0529 52.7739 18.9948 54.8042 12.1705 56.7678C12.1628 56.7704 12.1576 56.773 12.1512 56.773C7.27115 58.2806 3.36711 61.1856 0.548239 65.4081C-0.417497 66.8541 -0.0758937 68.7959 1.32519 69.8258C2.14325 70.4294 2.92534 70.7068 3.96556 70.5257C4.86066 70.369 5.60166 69.8887 6.10893 69.1336C7.48818 67.0789 9.25014 65.3888 11.4641 64.0044L11.495 69.5934C11.495 70.92 12.5763 72 13.9055 72H22.809C24.1381 72 25.2195 70.92 25.2195 69.5934V58.5927C29.3893 56.9605 32.7437 54.2687 35.2107 50.5779C37.679 54.2687 41.0321 56.9605 45.2033 58.5927V69.5934C45.2033 70.92 46.2833 72 47.6138 72H56.5173C57.8464 72 58.9278 70.92 58.9278 69.5985L58.9573 64.0044C61.1726 65.3888 62.9333 67.0789 64.3138 69.1336C65.3476 70.6747 67.4499 71.0433 68.9434 69.9388L69.0975 69.8258C70.4986 68.7959 70.8402 66.8528 69.8732 65.4081ZM55.138 51.0928C57.3199 51.0928 59.096 49.318 59.096 47.1387C59.096 44.9581 57.3199 43.1833 55.138 43.1833C52.9548 43.1833 51.1788 44.9581 51.1788 47.1387C51.1788 49.318 52.9548 51.0928 55.138 51.0928ZM55.138 41.144C51.8286 41.144 49.1368 43.8318 49.1368 47.1387C49.1368 50.4443 51.8286 53.1335 55.138 53.1335C58.4462 53.1335 61.1379 50.443 61.1379 47.1387C61.1379 43.8318 58.4462 41.144 55.138 41.144ZM15.286 43.1833C13.1028 43.1833 11.3267 44.9568 11.3267 47.1387C11.3267 49.318 13.1028 51.0928 15.286 51.0928C17.4679 51.0928 19.244 49.318 19.244 47.1387C19.244 44.9568 17.4679 43.1833 15.286 43.1833ZM15.286 53.1335C18.5942 53.1335 21.2859 50.443 21.2859 47.1387C21.2859 43.8318 18.5942 41.144 15.286 41.144C11.9765 41.144 9.28481 43.8318 9.28481 47.1387C9.28481 50.443 11.9765 53.1335 15.286 53.1335Z" fill="black"/>
</svg>
